<svg xmlns="http://www.w3.org/2000/svg" viewBox="0 0 1920 1080"><defs><linearGradient id="sky" x2="0" y2="1"><stop stop-color="#07111a"/><stop offset=".55" stop-color="#102334"/><stop offset="1" stop-color="#091017"/></linearGradient><linearGradient id="tower" x2="0" y2="1"><stop stop-color="#29435a"/><stop offset=".5" stop-color="#162a3a"/><stop offset="1" stop-color="#081018"/></linearGradient><linearGradient id="gold" x2="0" y2="1"><stop stop-color="#f7dc9c"/><stop offset="1" stop-color="#b68a3d"/></linearGradient><radialGradient id="sun"><stop stop-color="#fff3c8" stop-opacity=".65"/><stop offset="1" stop-color="#fff3c8" stop-opacity="0"/></radialGradient><filter id="blur"><feGaussianBlur stdDeviation="28"/></filter></defs><rect width="1920" height="1080" fill="url(#sky)"/><circle cx="1510" cy="180" r="240" fill="url(#sun)" filter="url(#blur)"/><g><path d="M0 780h230V420h180v360h120V240h260v540h140V130h330v650h130V300h250v480h280v300H0z" fill="#081018"/><rect x="930" y="130" width="330" height="650" fill="url(#tower)"/><path d="M930 130l165-95 165 95" fill="#1b3448"/><rect x="530" y="240" width="260" height="540" fill="url(#tower)"/><rect x="1370" y="300" width="250" height="480" fill="url(#tower)"/></g><g fill="#d7ebff" opacity=".18"><g><rect x="575" y="290" width="50" height="90"/><rect x="685" y="290" width="50" height="90"/><rect x="575" y="430" width="50" height="90"/><rect x="685" y="430" width="50" height="90"/><rect x="575" y="570" width="50" height="90"/><rect x="685" y="570" width="50" height="90"/></g><g><rect x="980" y="210" width="60" height="105"/><rect x="1100" y="210" width="60" height="105"/><rect x="980" y="370" width="60" height="105"/><rect x="1100" y="370" width="60" height="105"/><rect x="980" y="530" width="60" height="105"/><rect x="1100" y="530" width="60" height="105"/></g></g><rect y="780" width="1920" height="300" fill="#060b10"/><path d="M0 920C360 860 670 950 970 900s610-70 950 10v170H0z" fill="#0a141d"/><g stroke="url(#gold)" stroke-opacity=".35" fill="none"><path d="M0 970h1920" stroke-width="4"/><path d="M200 850h1520" stroke-width="2"/><path d="M280 850l220 230M700 850l70 230M1160 850l-90 230M1560 850l-250 230"/></g><g fill="#f0d796" opacity=".5"><rect x="70" y="630" width="150" height="8"/><rect x="1650" y="660" width="180" height="8"/></g></svg>