<svg xmlns="http://www.w3.org/2000/svg" viewBox="0 0 1920 1080"><defs><linearGradient id="sky" x2="0" y2="1"><stop stop-color="#160d0a"/><stop offset=".35" stop-color="#7c2d13"/><stop offset=".62" stop-color="#ef7c2f"/><stop offset=".84" stop-color="#ffc184"/><stop offset="1" stop-color="#26201d"/></linearGradient><radialGradient id="sun"><stop stop-color="#fff4d0"/><stop offset=".3" stop-color="#ffb15c" stop-opacity=".85"/><stop offset="1" stop-color="#ff7b2d" stop-opacity="0"/></radialGradient><filter id="blur"><feGaussianBlur stdDeviation="30"/></filter></defs><rect width="1920" height="1080" fill="url(#sky)"/><circle cx="520" cy="420" r="210" fill="url(#sun)" filter="url(#blur)"/><path d="M0 660h140l35-180h18l25 180h105l30-240h22l26 240h250l22-150h24l25 150h170l28-210h20l26 210h210l40-280h25l38 280h310v150H0z" fill="#171311" opacity=".9"/><rect y="735" width="1920" height="345" fill="#111214"/><path d="M0 810h1920M220 735l250 345M690 735l85 345M1180 735l-80 345M1670 735l-260 345" stroke="#d98b55" stroke-opacity=".32" stroke-width="5" fill="none"/><g stroke="#090909" stroke-width="10" fill="none"><path d="M320 735V390h250v345"/><rect x="505" y="455" width="145" height="95"/><circle cx="578" cy="552" r="24"/><path d="M1375 735V360h240v375"/><rect x="1300" y="430" width="145" height="95"/><circle cx="1372" cy="527" r="24"/></g><g stroke="#d7d7d7" stroke-opacity=".35" fill="none"><path d="M0 735h1920"/><path d="M0 980h1920"/><circle cx="960" cy="860" r="110"/><path d="M960 750v220"/></g><g fill="#ffca98" opacity=".25"><circle cx="170" cy="700" r="3"/><circle cx="420" cy="630" r="2"/><circle cx="820" cy="700" r="3"/><circle cx="1500" cy="660" r="2"/></g></svg>