<svg xmlns="http://www.w3.org/2000/svg" viewBox="0 0 1920 1080"><defs><linearGradient id="sky" x2="0" y2="1"><stop stop-color="#02050b"/><stop offset=".55" stop-color="#0a1220"/><stop offset="1" stop-color="#111018"/></linearGradient><radialGradient id="neb"><stop stop-color="#6d4bd8" stop-opacity=".28"/><stop offset="1" stop-color="#6d4bd8" stop-opacity="0"/></radialGradient><linearGradient id="glass" x2="0" y2="1"><stop stop-color="#27354a"/><stop offset="1" stop-color="#080b10"/></linearGradient><filter id="blur"><feGaussianBlur stdDeviation="28"/></filter></defs><rect width="1920" height="1080" fill="url(#sky)"/><ellipse cx="1280" cy="170" rx="520" ry="250" fill="url(#neb)" filter="url(#blur)"/><g fill="#fff" opacity=".8"><circle cx="130" cy="140" r="2"/><circle cx="315" cy="95" r="1.6"/><circle cx="610" cy="170" r="1.8"/><circle cx="910" cy="100" r="1.4"/><circle cx="1180" cy="200" r="2"/><circle cx="1450" cy="120" r="1.5"/><circle cx="1720" cy="205" r="2.2"/></g><g opacity=".92"><path d="M0 780h190v-210h95v210h120v-320h130v320h95V610h145v170h115V390h170v390h95V530h160v250h120V430h135v350h100v-280h150v280h70v300H0z" fill="#06080d"/><path d="M865 390h170v390H865z" fill="url(#glass)"/><g fill="#8cb4ff" opacity=".25"><rect x="900" y="430" width="18" height="80"/><rect x="950" y="430" width="18" height="80"/><rect x="900" y="560" width="18" height="80"/><rect x="950" y="560" width="18" height="80"/></g></g><rect y="780" width="1920" height="300" fill="#030405"/><path d="M0 865C430 810 720 920 1040 850s540-50 880 20v210H0z" fill="#08090c"/><path d="M0 900C420 850 760 950 1060 890s520-55 860 5" fill="none" stroke="#8366ff" stroke-opacity=".16" stroke-width="8"/><ellipse cx="960" cy="1000" rx="700" ry="70" fill="#8060ff" opacity=".06" filter="url(#blur)"/></svg>