<svg xmlns="http://www.w3.org/2000/svg" viewBox="0 0 1920 1080"><defs><linearGradient id="sky" x2="0" y2="1"><stop stop-color="#05050a"/><stop offset=".5" stop-color="#141124"/><stop offset="1" stop-color="#08080c"/></linearGradient><radialGradient id="violet"><stop stop-color="#9d68ff" stop-opacity=".28"/><stop offset="1" stop-color="#9d68ff" stop-opacity="0"/></radialGradient><linearGradient id="glass" x2="0" y2="1"><stop stop-color="#2e2942"/><stop offset="1" stop-color="#111018"/></linearGradient><filter id="blur"><feGaussianBlur stdDeviation="24"/></filter></defs><rect width="1920" height="1080" fill="url(#sky)"/><ellipse cx="1250" cy="220" rx="500" ry="260" fill="url(#violet)" filter="url(#blur)"/><g><path d="M0 720h230V450h180v270h130V320h290v400h160V210h360v510h130V390h230v330h230v360H0z" fill="#08080d"/><rect x="990" y="210" width="360" height="510" fill="url(#glass)"/><g fill="#c4a8ff" opacity=".2"><rect x="1040" y="270" width="80" height="20"/><rect x="1190" y="270" width="100" height="20"/><rect x="1040" y="340" width="250" height="18"/><rect x="1040" y="410" width="80" height="20"/><rect x="1190" y="410" width="100" height="20"/></g></g><rect y="720" width="1920" height="360" fill="#09090d"/><g opacity=".75"><rect x="180" y="770" width="520" height="230" rx="20" fill="#11101a" stroke="#7e5bd7" stroke-opacity=".4"/><rect x="1220" y="760" width="520" height="240" rx="20" fill="#101017" stroke="#9a6eff" stroke-opacity=".35"/><circle cx="360" cy="885" r="72" fill="#1d1b2b" stroke="#b08cff" stroke-opacity=".45" stroke-width="8"/><circle cx="540" cy="885" r="72" fill="#1d1b2b" stroke="#b08cff" stroke-opacity=".45" stroke-width="8"/><rect x="1340" y="820" width="270" height="110" rx="12" fill="#171426"/><path d="M1360 875h30l20-40 35 90 30-70 25 42 40-25 50 3" stroke="#c6a3ff" stroke-width="5" fill="none"/></g><g fill="#d9c9ff" opacity=".55"><circle cx="220" cy="190" r="3"/><circle cx="490" cy="130" r="2"/><circle cx="760" cy="210" r="2.5"/><circle cx="1480" cy="150" r="2"/><circle cx="1700" cy="250" r="3"/></g><g stroke="#ad86ff" stroke-opacity=".2" fill="none"><path d="M0 930C250 870 460 990 720 920s480-70 720 0 320 60 480 0" stroke-width="7"/><path d="M0 970C300 910 500 1010 760 950s460-60 700 0 300 40 460 0" stroke-width="3"/></g></svg>