<svg xmlns="http://www.w3.org/2000/svg" viewBox="0 0 1920 1080"><defs><linearGradient id="sky" x2="0" y2="1"><stop stop-color="#07070a"/><stop offset=".55" stop-color="#17121d"/><stop offset="1" stop-color="#08080a"/></linearGradient><linearGradient id="road" x2="0" y2="1"><stop stop-color="#18171b"/><stop offset="1" stop-color="#050506"/></linearGradient><linearGradient id="pink"><stop stop-color="#ff4b9b"/><stop offset="1" stop-color="#7d35c7"/></linearGradient><filter id="glow"><feGaussianBlur stdDeviation="18"/></filter></defs><rect width="1920" height="1080" fill="url(#sky)"/><g fill="#09090c"><path d="M0 120h390v650H0zM420 260h300v510H420zM760 90h390v680H760zM1190 210h280v560h-280zM1500 80h420v690h-420z"/></g><g fill="#ffca8d" opacity=".42"><rect x="55" y="210" width="80" height="38"/><rect x="190" y="330" width="95" height="45"/><rect x="490" y="390" width="120" height="58"/><rect x="830" y="230" width="95" height="40"/><rect x="980" y="420" width="105" height="50"/><rect x="1260" y="335" width="120" height="58"/><rect x="1600" y="210" width="130" height="52"/><rect x="1760" y="430" width="90" height="44"/></g><g><rect x="110" y="490" width="240" height="90" rx="8" fill="url(#pink)"/><rect x="815" y="520" width="270" height="88" rx="8" fill="#7f3fff"/><rect x="1540" y="480" width="280" height="96" rx="8" fill="#ff3b79"/><text x="230" y="548" text-anchor="middle" font-family="Arial" font-size="34" fill="white">GOOD FOOD · GOOD MOOD</text><text x="950" y="576" text-anchor="middle" font-family="Arial" font-size="36" fill="white">SCHMACKINN</text></g><rect y="770" width="1920" height="310" fill="url(#road)"/><path d="M0 850C420 790 640 920 1030 840s520-35 890 40v200H0z" fill="#0a090c"/><g opacity=".3" filter="url(#glow)"><path d="M100 860h330l-80 220H40z" fill="#ff4b9b"/><path d="M760 850h420l80 230H700z" fill="#7d35c7"/><path d="M1500 850h300l110 230h-500z" fill="#ff3b79"/></g><g stroke="#d8c7ff" stroke-opacity=".32"><path d="M50 -40l260 700M230 -50l260 700M450 -40l260 700M670 -50l260 700M890 -40l260 700M1110 -50l260 700M1330 -40l260 700M1550 -50l260 700M1770 -40l260 700"/></g><g fill="#c8a6ff" opacity=".18"><ellipse cx="260" cy="760" rx="180" ry="18"/><ellipse cx="950" cy="760" rx="260" ry="22"/><ellipse cx="1650" cy="760" rx="190" ry="18"/></g></svg>