<svg xmlns="http://www.w3.org/2000/svg" viewBox="0 0 1920 1080"><defs><linearGradient id="sky" x2="0" y2="1"><stop stop-color="#8b6044"/><stop offset=".42" stop-color="#d4ab7d"/><stop offset=".72" stop-color="#f0dbc0"/><stop offset="1" stop-color="#6e5140"/></linearGradient><linearGradient id="stone" x2="0" y2="1"><stop stop-color="#d8c5aa"/><stop offset="1" stop-color="#8c765f"/></linearGradient><radialGradient id="sun"><stop stop-color="#fff5d8" stop-opacity=".95"/><stop offset=".25" stop-color="#ffd99d" stop-opacity=".65"/><stop offset="1" stop-color="#ffd99d" stop-opacity="0"/></radialGradient><filter id="blur"><feGaussianBlur stdDeviation="24"/></filter></defs><rect width="1920" height="1080" fill="url(#sky)"/><circle cx="1430" cy="210" r="180" fill="url(#sun)" filter="url(#blur)"/><path d="M0 690C280 620 540 630 830 700s620 95 1090-25v405H0z" fill="#b89a75"/><path d="M0 760C420 690 770 800 1110 740s530-65 810 15v325H0z" fill="#8f735a"/><g><path d="M270 650h420V330h250v320h140V420h390v230h180v250H270z" fill="url(#stone)"/><rect x="360" y="430" width="220" height="320" rx="6" fill="#2e2925" opacity=".88"/><rect x="1120" y="500" width="280" height="250" rx="8" fill="#272321" opacity=".86"/><path d="M690 330h250l-80-95H760z" fill="#cbb89c"/><path d="M1015 400c120-90 280-70 390 10" fill="none" stroke="#ead9c4" stroke-width="18" opacity=".7"/></g><g fill="none" stroke="#f7e5ca" stroke-opacity=".5"><path d="M0 900h1920" stroke-width="4"/><path d="M100 900l300 180M450 900l140 180M850 900l-60 180M1250 900l-190 180M1600 900l-330 180"/></g><g fill="#f9e5cf" opacity=".55"><ellipse cx="210" cy="240" rx="9" ry="4" transform="rotate(35 210 240)"/><ellipse cx="350" cy="165" rx="8" ry="3" transform="rotate(-20 350 165)"/><ellipse cx="780" cy="210" rx="7" ry="3"/><ellipse cx="1650" cy="370" rx="10" ry="4" transform="rotate(45 1650 370)"/></g><ellipse cx="960" cy="985" rx="680" ry="50" fill="#fff0dc" opacity=".12" filter="url(#blur)"/></svg>