<svg xmlns="http://www.w3.org/2000/svg" viewBox="0 0 385 350" role="img" aria-label="Pour Your Frequency neon mark">
<defs>
 <filter id="blueGlow"><feGaussianBlur stdDeviation="3" result="b"/><feMerge><feMergeNode in="b"/><feMergeNode in="SourceGraphic"/></feMerge></filter>
 <filter id="pinkGlow"><feGaussianBlur stdDeviation="4" result="b"/><feMerge><feMergeNode in="b"/><feMergeNode in="SourceGraphic"/></feMerge></filter>
 <linearGradient id="ice" x1="0" y1="0" x2="1" y2="1"><stop stop-color="#fff"/><stop offset=".5" stop-color="#c4d7ff"/><stop offset="1" stop-color="#7c3aed"/></linearGradient>
 <linearGradient id="pour" x1="0" y1="0" x2="0" y2="1"><stop stop-color="#a855f7"/><stop offset=".45" stop-color="#ec4899"/><stop offset="1" stop-color="#ff4fd8"/></linearGradient>
</defs>
<path d="M 277 235 L 275 236 L 273 249 L 272 272 L 274 272 L 274 259 L 278 238 Z M 273 228 L 271 228 L 262 260 L 259 287 L 263 293 L 266 293 L 271 288 L 273 281 L 271 281 L 270 286 L 267 290 L 264 291 L 261 288 L 262 271 L 266 251 Z M 50 192 L 47 195 L 48 203 L 51 200 Z M 315 173 L 314 176 L 316 176 Z M 304 167 L 302 167 L 298 174 L 295 187 L 297 187 L 298 180 L 304 170 Z M 322 55 L 303 35 L 295 29 L 280 21 L 264 16 L 229 16 L 203 27 L 193 35 L 179 50 L 168 72 L 167 69 L 163 66 L 160 66 L 151 71 L 144 78 L 136 93 L 131 93 L 102 117 L 93 122 L 90 126 L 30 173 L 20 183 L 15 193 L 13 209 L 16 227 L 24 246 L 26 247 L 31 256 L 49 272 L 59 276 L 73 276 L 207 243 L 212 239 L 213 234 L 230 236 L 241 232 L 240 227 L 229 229 L 215 228 L 193 217 L 187 211 L 193 211 L 195 210 L 195 208 L 181 197 L 178 197 L 178 200 L 176 200 L 175 196 L 167 187 L 155 167 L 149 150 L 155 147 L 165 149 L 168 151 L 169 150 L 162 146 L 151 146 L 148 144 L 144 121 L 145 98 L 149 86 L 155 80 L 158 79 L 162 73 L 167 72 L 168 74 L 164 87 L 166 103 L 165 123 L 167 126 L 166 127 L 172 146 L 176 153 L 176 155 L 172 159 L 172 162 L 177 160 L 179 161 L 190 183 L 193 185 L 192 188 L 194 189 L 196 195 L 206 201 L 219 212 L 208 213 L 200 210 L 199 212 L 204 217 L 220 218 L 226 216 L 242 225 L 250 227 L 258 227 L 263 225 L 264 223 L 263 219 L 250 220 L 234 213 L 232 211 L 233 210 L 245 211 L 246 207 L 239 207 L 230 204 L 222 199 L 219 200 L 213 195 L 217 190 L 210 183 L 205 181 L 204 182 L 204 177 L 202 177 L 201 175 L 196 175 L 184 151 L 187 136 L 192 126 L 194 127 L 196 136 L 204 153 L 208 153 L 210 155 L 209 158 L 212 163 L 233 184 L 247 194 L 249 194 L 253 198 L 253 200 L 256 198 L 260 198 L 262 196 L 262 193 L 260 191 L 262 186 L 259 180 L 258 187 L 254 189 L 243 180 L 238 178 L 226 166 L 217 154 L 212 144 L 212 140 L 207 128 L 207 120 L 224 124 L 258 123 L 262 125 L 260 127 L 261 129 L 271 134 L 281 135 L 292 140 L 304 139 L 308 145 L 311 144 L 309 140 L 310 138 L 317 137 L 320 139 L 320 148 L 324 148 L 326 142 L 329 146 L 329 163 L 315 192 L 317 235 L 314 245 L 307 238 L 302 238 L 297 242 L 296 241 L 296 235 L 298 231 L 302 210 L 302 199 L 300 193 L 295 190 L 292 190 L 287 194 L 284 211 L 282 215 L 278 217 L 274 214 L 274 208 L 279 200 L 279 189 L 281 187 L 278 181 L 272 181 L 271 183 L 276 182 L 277 184 L 269 187 L 269 190 L 273 191 L 273 198 L 268 208 L 268 215 L 273 222 L 279 223 L 287 218 L 290 212 L 290 206 L 293 196 L 295 197 L 296 202 L 293 223 L 291 225 L 288 224 L 288 234 L 285 241 L 286 247 L 283 249 L 281 265 L 276 281 L 273 299 L 274 317 L 279 321 L 285 320 L 291 312 L 294 298 L 293 289 L 297 259 L 302 246 L 305 243 L 307 247 L 301 263 L 298 281 L 299 288 L 303 294 L 309 295 L 314 291 L 316 286 L 318 258 L 323 234 L 321 192 L 333 169 L 336 158 L 336 149 L 330 137 L 325 133 L 323 115 L 319 100 L 313 87 L 313 81 L 311 76 L 302 65 L 302 63 L 298 61 L 285 47 L 264 34 L 246 28 L 221 27 L 234 23 L 254 22 L 271 26 L 277 30 L 278 29 L 291 36 L 307 49 L 326 74 L 339 102 L 345 132 L 345 148 L 341 170 L 332 190 L 324 196 L 324 198 L 327 201 L 329 201 L 336 196 L 344 183 L 345 177 L 347 175 L 352 150 L 352 129 L 350 115 L 343 92 L 336 77 Z M 288 271 L 289 274 L 287 304 L 285 311 L 280 315 L 278 310 L 278 303 L 284 274 L 286 271 Z M 311 258 L 311 279 L 310 286 L 307 289 L 305 287 L 305 275 L 308 268 L 308 263 Z M 290 257 L 291 261 L 288 266 L 287 264 Z M 184 208 L 185 207 L 187 209 L 185 210 Z M 211 189 L 213 191 L 212 195 L 209 192 Z M 263 126 L 268 126 L 273 130 L 268 130 Z M 136 101 L 136 104 L 134 104 L 136 125 L 135 127 L 137 139 L 139 141 L 139 146 L 130 151 L 137 149 L 140 150 L 144 162 L 158 189 L 172 208 L 185 221 L 181 224 L 100 244 L 97 246 L 97 248 L 104 248 L 188 227 L 195 227 L 201 231 L 205 231 L 208 233 L 202 237 L 185 240 L 182 242 L 104 262 L 89 264 L 87 266 L 69 270 L 58 269 L 49 264 L 36 251 L 25 232 L 21 217 L 21 199 L 24 190 L 33 180 L 33 189 L 28 202 L 28 207 L 30 210 L 31 219 L 35 227 L 39 231 L 45 232 L 51 240 L 60 248 L 70 253 L 81 253 L 83 250 L 85 250 L 85 248 L 72 249 L 65 246 L 48 229 L 44 227 L 42 224 L 43 220 L 39 210 L 37 198 L 44 190 L 51 190 L 52 185 L 56 181 L 86 160 L 120 133 L 124 133 L 123 132 L 130 127 L 129 126 L 131 125 L 131 122 L 129 120 L 123 119 L 111 131 L 105 134 L 91 146 L 89 145 L 87 149 L 84 150 L 40 185 L 39 181 L 42 176 L 54 165 L 84 143 L 91 136 L 100 130 L 105 124 L 118 118 L 117 117 L 133 102 Z M 211 57 L 220 50 L 236 49 L 249 53 L 262 61 L 265 59 L 263 55 L 252 49 L 231 43 L 235 41 L 248 41 L 269 48 L 277 53 L 292 66 L 305 82 L 305 86 L 310 90 L 319 117 L 320 131 L 305 133 L 299 130 L 283 130 L 274 123 L 263 118 L 257 117 L 225 118 L 211 113 L 207 116 L 206 114 L 208 112 L 205 112 L 203 107 L 202 82 L 204 80 L 205 69 Z M 229 33 L 229 35 L 217 40 L 200 57 L 193 69 L 190 77 L 195 81 L 190 83 L 189 90 L 186 94 L 188 95 L 190 115 L 194 118 L 188 125 L 183 139 L 181 140 L 179 137 L 180 134 L 178 133 L 174 111 L 174 90 L 178 69 L 181 63 L 183 62 L 186 54 L 196 45 L 199 44 L 200 40 L 203 41 L 220 34 Z" fill="url(#ice)" fill-rule="evenodd" filter="url(#blueGlow)"/>
<path d="M 213 234 L 210 234 L 212 238 L 208 242 L 212 239 Z M 44 232 L 57 245 L 69 252 L 79 253 L 85 249 L 70 249 L 59 242 L 47 229 Z M 241 231 L 240 227 L 222 229 L 238 227 L 240 229 L 240 232 L 236 234 Z M 38 204 L 38 210 L 41 216 Z M 204 231 L 195 226 L 190 225 L 167 201 L 186 221 L 185 223 L 98 245 L 97 248 L 106 247 L 190 226 L 197 227 L 200 230 Z M 98 247 L 99 245 L 101 246 L 99 248 Z M 50 193 L 47 195 L 48 202 L 50 202 L 51 199 Z M 48 199 L 49 198 L 50 200 L 49 201 Z M 48 196 L 49 195 L 50 197 L 49 198 Z M 52 186 L 49 189 L 47 189 L 50 190 Z M 314 174 L 314 176 L 316 176 L 316 174 Z M 182 167 L 196 189 L 196 191 L 213 208 L 219 211 L 217 214 L 200 211 L 200 213 L 203 216 L 219 218 L 224 215 L 246 226 L 258 227 L 263 225 L 263 219 L 260 219 L 262 219 L 264 222 L 260 226 L 253 227 L 239 223 L 222 214 L 200 194 L 192 184 Z M 202 214 L 207 213 L 211 215 L 205 216 Z M 55 164 L 44 172 L 37 180 L 37 183 L 35 180 L 33 180 L 26 187 L 34 180 L 35 181 L 33 190 L 36 182 L 38 184 L 42 175 Z M 153 162 L 157 172 L 174 199 L 189 214 L 182 207 L 184 206 L 190 210 L 194 210 L 195 208 L 181 198 L 179 198 L 178 202 L 176 201 L 160 177 Z M 180 201 L 182 200 L 183 202 L 182 203 Z M 187 160 L 193 172 L 216 200 L 219 202 L 223 201 L 232 206 L 232 208 L 226 207 L 231 212 L 236 214 L 230 210 L 233 209 L 237 211 L 244 211 L 246 209 L 246 207 L 237 207 L 223 200 L 219 201 L 213 197 L 208 191 L 212 187 L 208 188 L 199 180 Z M 214 147 L 218 156 L 227 168 L 248 186 L 262 195 L 260 197 L 254 197 L 240 188 L 249 194 L 253 198 L 253 200 L 255 198 L 261 197 L 261 191 L 263 187 L 261 180 L 258 180 L 257 187 L 255 189 L 248 186 L 243 180 L 238 178 L 226 166 L 215 151 Z M 172 143 L 177 155 L 173 161 L 178 159 L 181 165 Z M 147 139 L 147 145 L 150 152 L 149 148 L 151 147 L 147 145 Z M 177 129 L 182 150 L 186 158 L 183 151 L 183 147 L 187 131 L 185 139 L 181 144 Z M 118 125 L 80 155 L 111 132 Z M 129 120 L 130 125 L 125 130 L 130 125 Z M 350 117 L 352 132 L 351 156 L 345 180 L 341 187 L 345 180 L 351 157 L 352 130 Z M 166 114 L 166 122 L 169 134 Z M 124 110 L 113 119 L 105 123 L 98 131 L 79 146 L 98 131 L 104 124 L 112 120 Z M 136 105 L 136 124 L 138 139 L 136 123 Z M 202 84 L 203 113 L 207 130 L 212 143 L 205 122 L 206 120 L 223 124 L 257 123 L 260 125 L 260 129 L 266 134 L 273 135 L 276 138 L 281 138 L 278 137 L 282 136 L 292 140 L 302 140 L 302 142 L 306 146 L 310 146 L 311 143 L 315 140 L 311 139 L 318 137 L 320 139 L 320 148 L 324 148 L 324 144 L 326 142 L 329 146 L 330 158 L 328 166 L 316 190 L 313 190 L 311 194 L 309 193 L 306 196 L 303 192 L 298 191 L 302 180 L 305 178 L 305 169 L 303 165 L 297 169 L 293 181 L 291 183 L 292 188 L 285 197 L 280 191 L 286 184 L 283 180 L 275 178 L 272 179 L 267 185 L 267 190 L 270 196 L 269 198 L 271 200 L 268 205 L 268 216 L 271 221 L 268 225 L 266 232 L 262 229 L 263 242 L 262 243 L 261 241 L 258 247 L 255 273 L 256 291 L 259 295 L 263 296 L 264 298 L 267 297 L 269 299 L 268 308 L 270 314 L 273 315 L 273 320 L 273 316 L 276 320 L 285 323 L 291 319 L 291 317 L 297 310 L 299 304 L 303 300 L 309 300 L 317 293 L 322 280 L 325 254 L 325 240 L 322 237 L 323 234 L 325 234 L 325 213 L 322 212 L 321 200 L 325 199 L 329 201 L 325 197 L 332 191 L 340 174 L 345 151 L 345 131 L 345 150 L 340 173 L 337 177 L 335 185 L 332 190 L 322 199 L 322 190 L 331 174 L 335 163 L 336 149 L 334 143 L 324 131 L 323 117 L 318 99 L 313 88 L 313 82 L 313 91 L 310 91 L 318 111 L 320 122 L 319 132 L 305 132 L 298 128 L 283 129 L 279 127 L 277 123 L 275 124 L 263 118 L 257 117 L 226 118 L 210 114 L 207 117 L 203 111 L 202 105 Z M 284 321 L 285 320 L 286 322 L 285 323 Z M 307 230 L 311 231 L 311 239 L 306 238 L 304 236 L 306 235 L 305 233 Z M 271 221 L 275 223 L 283 221 L 285 222 L 285 230 L 281 237 L 278 234 L 274 234 L 273 226 L 270 222 Z M 274 212 L 277 211 L 278 215 L 276 216 Z M 279 201 L 279 207 L 277 204 Z M 212 114 L 214 116 L 226 119 L 261 118 L 276 125 L 280 129 L 294 135 L 324 132 L 333 142 L 335 149 L 334 164 L 330 175 L 320 193 L 322 234 L 316 266 L 315 286 L 313 291 L 309 294 L 303 293 L 300 288 L 300 273 L 308 248 L 307 243 L 304 242 L 298 253 L 294 270 L 291 310 L 285 319 L 280 320 L 274 315 L 274 298 L 279 273 L 283 261 L 283 256 L 287 249 L 287 245 L 295 219 L 297 202 L 295 194 L 293 194 L 290 201 L 289 212 L 287 217 L 280 222 L 274 222 L 269 216 L 269 207 L 274 197 L 273 188 L 276 187 L 279 192 L 278 199 L 273 208 L 273 214 L 276 217 L 279 218 L 283 215 L 285 210 L 286 199 L 290 191 L 297 192 L 300 195 L 301 201 L 298 227 L 296 230 L 294 243 L 288 257 L 280 287 L 277 311 L 278 315 L 281 317 L 285 314 L 287 308 L 289 270 L 296 245 L 302 239 L 309 240 L 312 246 L 312 251 L 304 275 L 305 290 L 309 290 L 311 286 L 314 254 L 313 251 L 316 245 L 318 233 L 316 192 L 328 168 L 330 161 L 331 151 L 329 144 L 319 137 L 310 137 L 308 139 L 287 138 L 278 134 L 271 127 L 258 122 L 223 123 L 214 121 L 209 118 L 209 116 Z M 145 78 L 138 92 L 132 93 L 120 103 L 129 95 L 133 93 L 136 94 Z M 160 75 L 150 85 L 156 79 L 159 78 Z M 202 56 L 196 64 L 191 76 L 195 79 L 195 81 L 190 84 L 190 111 L 192 116 L 196 116 L 193 122 L 199 142 L 204 152 L 207 152 L 210 155 L 212 162 L 216 166 L 213 163 L 210 155 L 204 150 L 201 145 L 195 127 L 197 123 L 197 116 L 196 114 L 193 115 L 191 113 L 191 84 L 195 81 L 195 78 L 192 76 L 196 64 Z M 218 51 L 230 48 L 238 49 L 250 53 L 261 60 L 265 59 L 264 56 L 253 50 L 233 45 L 230 43 L 224 49 Z M 261 57 L 262 56 L 264 59 L 262 60 Z M 229 47 L 231 45 L 246 49 L 242 50 Z M 187 53 L 198 44 L 201 39 L 205 40 L 214 35 L 228 32 L 233 33 L 222 38 L 232 34 L 253 32 L 268 37 L 280 44 L 302 65 L 312 79 L 301 63 L 284 47 L 271 38 L 248 29 L 220 29 L 220 27 L 215 30 L 223 30 L 224 31 L 222 33 L 214 34 L 206 38 L 200 39 L 198 43 Z M 224 30 L 231 28 L 238 30 L 235 32 Z" fill="url(#pour)" fill-rule="evenodd" filter="url(#pinkGlow)"/>
</svg>