<svg xmlns="http://www.w3.org/2000/svg" viewBox="0 0 309 391" role="img" aria-label="2 Harmonic Frequency Mark">
<defs>
 <linearGradient id="gold" x1="0" y1="0" x2="1" y2="1">
  <stop offset="0" stop-color="#fff2c7"/><stop offset=".35" stop-color="#d8bd8a"/><stop offset=".65" stop-color="#9b7543"/><stop offset="1" stop-color="#f5e6c8"/>
 </linearGradient>
 <filter id="glow"><feGaussianBlur stdDeviation="2.2" result="b"/><feMerge><feMergeNode in="b"/><feMergeNode in="SourceGraphic"/></feMerge></filter>
</defs>
<path d="M 2 389 L 0 390 L 2 390 Z M 258 6 L 242 1 L 235 1 L 234 0 L 219 1 L 206 5 L 198 9 L 188 16 L 179 25 L 165 13 L 148 4 L 134 1 L 119 2 L 106 6 L 91 15 L 77 29 L 69 41 L 63 53 L 57 71 L 55 87 L 54 88 L 54 99 L 53 100 L 54 124 L 55 125 L 56 136 L 62 157 L 68 171 L 82 193 L 82 196 L 63 226 L 54 246 L 47 271 L 46 303 L 47 304 L 47 311 L 53 332 L 60 346 L 75 365 L 86 374 L 97 380 L 114 385 L 137 384 L 147 381 L 157 376 L 168 368 L 175 361 L 188 373 L 205 382 L 217 385 L 231 385 L 241 383 L 255 377 L 266 369 L 278 356 L 290 336 L 297 316 L 300 300 L 300 292 L 301 291 L 300 260 L 292 228 L 282 207 L 273 194 L 272 190 L 289 164 L 297 148 L 304 129 L 308 109 L 308 80 L 302 56 L 296 43 L 289 32 L 275 17 Z M 87 365 L 88 364 L 90 365 L 89 366 Z M 95 337 L 96 336 L 97 337 L 96 338 Z M 93 336 L 94 335 L 96 336 L 95 337 Z M 268 315 L 269 316 L 268 319 L 267 318 Z M 290 311 L 291 312 L 290 315 L 289 314 Z M 268 312 L 269 311 L 270 312 L 269 313 Z M 268 319 L 266 328 L 260 339 L 250 349 L 238 355 L 221 356 L 212 353 L 204 348 L 195 339 L 191 332 L 187 332 L 176 349 L 161 364 L 144 374 L 126 378 L 113 377 L 98 372 L 89 366 L 92 365 L 104 368 L 124 367 L 135 364 L 150 357 L 160 350 L 174 336 L 181 326 L 189 311 L 192 313 L 196 320 L 206 330 L 215 336 L 226 340 L 243 340 L 247 339 L 257 333 L 263 326 L 267 318 Z M 115 234 L 150 276 L 165 297 L 163 298 L 162 302 L 154 314 L 144 324 L 133 331 L 119 335 L 107 334 L 101 331 L 94 324 L 90 316 L 88 307 L 88 289 L 93 270 L 104 248 Z M 242 233 L 252 248 L 260 265 L 264 280 L 265 298 L 264 299 L 263 310 L 258 321 L 250 329 L 239 333 L 231 333 L 223 331 L 215 327 L 207 321 L 199 312 L 194 303 L 220 260 L 239 235 Z M 101 218 L 107 224 L 109 229 L 99 243 L 89 262 L 85 273 L 82 288 L 82 309 L 83 314 L 89 329 L 94 335 L 92 336 L 80 325 L 76 318 L 72 305 L 71 284 L 72 283 L 72 275 L 74 266 L 80 250 L 91 230 L 97 221 Z M 228 213 L 234 220 L 236 225 L 213 258 L 193 293 L 191 295 L 178 295 L 177 293 L 197 257 L 217 226 Z M 87 201 L 97 213 L 86 229 L 75 251 L 70 267 L 69 279 L 68 280 L 68 299 L 69 300 L 70 311 L 78 328 L 86 336 L 98 342 L 103 343 L 124 342 L 133 339 L 145 332 L 158 319 L 168 304 L 182 304 L 183 305 L 176 320 L 170 329 L 155 345 L 141 355 L 130 360 L 119 363 L 114 363 L 113 364 L 95 363 L 85 360 L 76 355 L 65 341 L 57 324 L 53 309 L 52 279 L 55 263 L 60 248 L 68 231 Z M 176 150 L 179 152 L 188 164 L 210 189 L 210 191 L 201 202 L 194 214 L 178 236 L 145 197 Z M 187 132 L 205 156 L 219 171 L 247 205 L 265 230 L 279 257 L 286 281 L 287 296 L 288 297 L 287 319 L 285 327 L 286 328 L 281 339 L 273 351 L 259 365 L 246 373 L 233 377 L 216 377 L 208 375 L 189 364 L 180 355 L 189 343 L 202 355 L 212 360 L 221 362 L 237 361 L 250 355 L 255 351 L 264 340 L 271 323 L 272 308 L 273 307 L 271 281 L 264 257 L 248 228 L 217 186 L 182 145 L 181 141 Z M 186 95 L 220 140 L 266 195 L 276 210 L 285 228 L 292 250 L 294 260 L 294 268 L 295 269 L 295 292 L 291 311 L 290 310 L 290 281 L 289 280 L 288 269 L 282 249 L 272 228 L 250 197 L 203 142 L 187 119 L 185 120 L 164 157 L 143 185 L 139 189 L 131 180 L 131 178 L 155 146 Z M 178 91 L 179 92 L 148 145 L 131 169 L 126 173 L 118 162 L 145 123 L 159 100 L 162 93 L 165 90 Z M 63 76 L 64 77 L 64 104 L 65 105 L 66 116 L 70 131 L 79 152 L 99 182 L 121 209 L 152 244 L 168 265 L 168 268 L 171 265 L 189 232 L 212 201 L 216 197 L 224 207 L 200 240 L 172 288 L 169 291 L 149 263 L 93 197 L 82 182 L 71 162 L 62 135 L 61 124 L 60 123 L 60 114 L 59 113 L 59 97 L 60 96 L 61 82 Z M 84 75 L 85 74 L 86 75 L 85 76 Z M 64 72 L 65 73 L 64 76 L 63 75 Z M 86 68 L 87 69 L 86 72 L 85 71 Z M 120 53 L 133 56 L 142 61 L 155 74 L 160 82 L 160 85 L 131 132 L 116 153 L 113 155 L 104 141 L 95 123 L 90 105 L 90 82 L 94 69 L 102 59 L 109 55 Z M 232 51 L 245 51 L 255 56 L 261 63 L 264 69 L 266 77 L 266 98 L 263 111 L 253 133 L 240 152 L 209 115 L 191 90 L 191 87 L 199 73 L 211 61 L 225 53 Z M 261 49 L 266 52 L 273 59 L 280 72 L 283 86 L 283 105 L 280 120 L 275 134 L 268 148 L 259 163 L 254 169 L 246 159 L 252 150 L 265 124 L 269 113 L 272 99 L 272 76 L 271 71 L 266 58 L 259 50 Z M 258 49 L 259 48 L 260 49 L 259 50 Z M 256 48 L 257 47 L 258 48 L 257 49 Z M 238 22 L 245 22 L 246 21 L 257 22 L 268 25 L 276 29 L 283 36 L 290 46 L 297 61 L 301 76 L 301 81 L 302 82 L 302 108 L 298 127 L 291 145 L 284 159 L 275 174 L 267 184 L 265 183 L 258 173 L 263 166 L 277 140 L 283 124 L 286 108 L 285 78 L 282 68 L 275 56 L 266 48 L 258 44 L 248 43 L 247 42 L 228 44 L 216 49 L 204 58 L 196 67 L 189 79 L 186 82 L 172 82 L 171 81 L 181 61 L 187 53 L 201 39 L 218 28 Z M 265 21 L 266 20 L 267 21 L 266 22 Z M 122 9 L 135 9 L 150 13 L 161 19 L 171 27 L 174 31 L 165 43 L 153 32 L 138 25 L 119 25 L 112 27 L 103 32 L 93 42 L 89 48 L 84 60 L 82 70 L 82 97 L 83 98 L 83 103 L 90 128 L 105 156 L 125 184 L 173 241 L 174 245 L 169 253 L 165 250 L 150 230 L 128 206 L 96 166 L 85 149 L 76 131 L 68 105 L 68 100 L 67 99 L 67 70 L 69 63 L 68 58 L 75 44 L 83 33 L 98 19 L 111 12 Z M 266 20 L 264 21 L 254 18 L 233 18 L 218 22 L 207 27 L 195 35 L 186 43 L 173 60 L 165 75 L 162 73 L 157 65 L 145 54 L 136 49 L 126 46 L 113 46 L 108 47 L 100 51 L 92 59 L 87 69 L 86 68 L 86 64 L 89 56 L 96 45 L 106 36 L 117 31 L 131 30 L 139 32 L 151 39 L 158 46 L 163 54 L 167 54 L 174 42 L 182 32 L 195 20 L 209 12 L 223 8 L 238 8 L 255 13 Z" fill="url(#gold)" fill-rule="evenodd" filter="url(#glow)"/>
</svg>